# xmcd
#
# Track frame offsets: 
#        150
#        14252
#        26660
#        42867
#        61580
#        77705
#        88890
#        114835
#        132127
#        149510
#        163582
#        178797
#        194635
#        205960
#        225400
#        238672
#        248110
#        267370
#        285152
#        296962
#
# Disc length: 4118 seconds
#
# Revision: 0
# Processed by: cddbd v1.5.2PL0 Copyright (c) Steve Scherf et al.
# Submitted via: ExactAudioCopy v1.0b3
#
DISCID=1b101414
DTITLE=Various Artist - The Best of Country Blues
DYEAR=2014
DGENRE=Blues
TTITLE0=Big Joe Williams - Big Joe Williams - Baby Please Don't Go
TTITLE1=Arthur "Big Boy" Crudup - Arthur "Big Boy" Crudup - That's All
TTITLE1=Right
TTITLE2=Sleepy John Estes - Sleepy John Estes - Rats In My Kitchen
TTITLE3=J.D. Short - J.D. Short - Stavin' Chain Blues
TTITLE4=Barrelhouse Buck - Barrelhouse Buck - Four O'Clock Blues
TTITLE5=Blind Willie McTell - Blind Willie McTell - River Jordan
TTITLE6=COWBOY ROY BROWN - COWBOY ROY BROWN - Corrine Corrina - Carele
TTITLE6=ss Love
TTITLE7=Big Joe Williams - Big Joe Williams - Highway 49
TTITLE8=Sleepy John Estes - Sleepy John Estes - Everybody Oughta Chang
TTITLE8=e
TTITLE9=Champion Jack Dupree - Champion Jack Dupree - That's All Right
TTITLE9=With Me
TTITLE10=J.D. Short - J.D. Short - You Got To Help Me Some
TTITLE11=COWBOY ROY BROWN - COWBOY ROY BROWN - Down By The Riverside
TTITLE12=Dennis McMillon - Dennis McMillon - Goin' Back Home
TTITLE13=Arthur "Big Boy" Crudup - Arthur "Big Boy" Crudup - Coal Blac
TTITLE13=k Mare
TTITLE14=Robert McCoy - Robert McCoy - Goin' Down Slow
TTITLE15=THE BACK PORCH BOYS - THE BACK PORCH BOYS - Good Boy, Long Wa
TTITLE15=y From Home
TTITLE16=Sleepy John Estes - Sleepy John Estes - Brownsville Blues
TTITLE17=Big Joe Williams - Big Joe Williams - I Done Stop Hollering
TTITLE18=YANK RACHELL'S TENNESSEE JUG-BUSTERS - YANK RACHELL'S TENNESS
TTITLE18=EE JUG-BUSTERS - Do The Boogie Mama (Take 2)
TTITLE19=Blind Willie McTell - Blind Willie McTell - It's My Desire
EXTD=
EXTT0=
EXTT1=
EXTT2=
EXTT3=
EXTT4=
EXTT5=
EXTT6=
EXTT7=
EXTT8=
EXTT9=
EXTT10=
EXTT11=
EXTT12=
EXTT13=
EXTT14=
EXTT15=
EXTT16=
EXTT17=
EXTT18=
EXTT19=
PLAYORDER=
